<svg xmlns="http://www.w3.org/2000/svg" id="Layer_2" data-name="Layer 2" viewBox="0 0 111.1 83.5"><defs><style>.cls-2{fill:#003764}</style></defs><g id="Layer_1-2" data-name="Layer 1"><path d="M19.6 83.5s.7-9.7 6.3-22.9h-4.1c-1.5 7.4-2.2 15.1-2.2 22.9M105.8 0C83.3.2 55.6 8.2 39.9 24.4c-2 2-3.8 4.2-5.4 6.5l11 .1c.1-.1.2-.3.4-.4C69.2 6.2 111.1.2 111.1.2c-1.7-.1-3.5-.2-5.3-.2" style="fill:#c10230"/><path d="M0 38.7h2.4v14.8H0v2.4h8.6v-2.4H6.1V38.7h2.5v-2.5H0zm24.6 7.5c-.9-.7-1.8-1-2.9-1.4l-2.4-.9c-1.3-.5-2.9-1.1-2.9-2.7 0-.8.2-1.5.7-2 .6-.7 1.5-.8 2.3-.8 2.3 0 3.4 1.6 3.5 3.8v.6h3.2v-6.5H23V38c-1-1.6-2.9-2-4.6-2-2.3 0-3.8.8-4.6 2-.4.6-1.2 2-1.2 3.7 0 1.3.4 2.5 1.3 3.4 1 1 2 1.4 3.3 1.9l2.5 1c1.5.6 2.9 1.1 2.9 3.1s-1.5 2.8-3.2 2.8c-2.7 0-3.6-2.3-3.6-4.7h-3.3v6.9h3.1v-1.8c1 1.7 2.8 2.2 4.6 2.2 1.6 0 3.9-.4 5.1-2.2.7-.9 1.2-1.9 1.2-3.5 0-.5-.1-1.1-.2-1.6-.4-1.4-.7-2.2-1.7-3m7.7 7.3v2.4h9.1v-2.4h-2.6V38.8h3.1v4.1h3.2v-6.7H28.7v6.7h3.2v-4.1H35v14.7zm19.1 2c1.2.6 2.5.8 3.8.8 1.9 0 3.8-.2 5.7-.2h4.9v-2.6h-1.3c-.6 0-1.2.1-1.8.1s-1.2.2-1.8.2c2.8-1.6 3.7-5 3.7-8 0-1.9-.5-4-1.4-5.7-1-1.7-2.3-2.9-4.2-3.6-1.2-.4-2.4-.6-3.7-.6-2.5 0-5.1.9-6.7 2.9-1.8 2.2-2.4 4.7-2.4 7.5 0 2.5.5 4.9 2.1 6.9.8.8 2.2 1.8 3.1 2.3m-.1-14.4c.8-1.7 2.4-2.8 4.3-2.8s3.1.9 4.1 2.6c.9 1.5 1.1 3.7 1.1 5.5 0 3.2-1.4 7.5-5.2 7.5-4.2 0-5.2-4.2-5.2-7.6 0-1.8.2-3.6.9-5.2m30.1 14.2c1.7-.9 2.7-2.6 2.7-4.5 0-2.5-1.6-4.9-4.3-5 2.5-.4 3.9-2 3.9-4.5 0-1.4-.6-3-1.7-3.9-1.3-1-2.8-1.1-4.4-1.1h-9.9v2.5H70v14.7h-2.3V56h8.7c1.6-.1 3.7 0 5-.7m-7.6-16.6h1.6c.9 0 2.3-.1 3.1.2 1.1.5 1.4 1.5 1.4 2.6 0 .9-.4 1.8-1 2.4-.7.6-2 .6-2.9.6h-2.2zm0 14.8v-6.4h2.5c1 0 1.9-.1 2.8.5s1.3 1.5 1.3 2.6c0 1-.3 1.8-1.1 2.6-.8.7-1.9.7-2.9.7zm11.8-15.1h.5c.1 0 .2 0 .3.1q.1.1.1.3v.5h.5v-.6q0-.1-.1-.2l-.1-.1-.1-.1c.1 0 .2-.1.3-.2s.1-.2.1-.3v-.2c0-.1-.1-.1-.1-.2q-.1-.1-.2-.1h-1.5v2.2h.5v-1.1zm0-1h.5c.1 0 .2 0 .2.1.1 0 .1.1.1.2s0 .2-.1.2-.1.1-.2.1h-.5z" class="cls-2"/><path d="M86.1 40.2c1.1 0 2-.9 2-2s-.9-2-2-2-2 .9-2 2 .8 2 2 2m0-3.8c1 0 1.8.8 1.8 1.8s-.8 1.8-1.8 1.8-1.8-.8-1.8-1.8.8-1.8 1.8-1.8" class="cls-2"/></g></svg>