<svg xmlns="http://www.w3.org/2000/svg" viewBox="0 0 192.756 192.756"><g fill-rule="evenodd" clip-rule="evenodd"><path fill="#505e86" d="M137.5 117.884c.82-4.558 1.496-8.425 2.021-11.59.527-3.177.979-6.14 1.367-8.895l2.844-20.577c1.172.12 2.076.189 2.699.229.631.042 1.176.062 1.652.062.516 0 1.115-.02 1.822-.062.695-.05 1.568-.12 2.621-.229a635 635 0 0 0 6.014 14.576 458 458 0 0 0 5.59 12.491l7.951-16.418c1.01-2.114 1.854-4.006 2.537-5.7a58 58 0 0 0 1.729-4.948c1.105.12 1.99.189 2.652.229.654.042 1.223.062 1.697.062q.805 0 1.801-.062c.672-.04 1.537-.109 2.609-.229l2.033 20.224c.045.472.115 1.192.221 2.176q1.296 12.757 2.561 18.661c-1.486-.119-2.654-.19-3.518-.23a49 49 0 0 0-2.223-.06c-.695 0-1.486.02-2.357.06-.875.04-2.023.111-3.445.23-.062-3.206-.314-7.232-.768-12.062a8 8 0 0 1-.064-.79l-1.537-14.327a576 576 0 0 0-6.426 13.614 578 578 0 0 0-5.947 13.564 19 19 0 0 0-2.221-.119q-.381 0-1.424.06c-.369.021-.674.04-.895.06a332 332 0 0 0-5.865-13.502 313 313 0 0 0-6.414-13.125l-1.82 16.438c-.107 1.394-.211 2.956-.328 4.689a510 510 0 0 0-.326 5.499 63 63 0 0 0-2.357-.23c-.518-.04-.949-.06-1.275-.06-.336 0-.736.02-1.221.06-.482.04-1.148.112-1.99.231m-44.524 0a551 551 0 0 0 10.097-20.996 503 503 0 0 0 8.904-20.827h.191q2.27.228 3.295.23c.557 0 1.465-.06 2.738-.171q.49-.06.727-.06a652 652 0 0 0 8.723 21.368 665 665 0 0 0 9.176 20.455c-1.441-.06-2.715-.1-3.803-.129a101 101 0 0 0-2.785-.052c-.998 0-2.055.02-3.178.052-1.115.029-2.318.069-3.613.129a419 419 0 0 1-1.951-5.489 603 603 0 0 0-2.139-5.98c-.42-.021-1.486-.061-3.211-.109-1.717-.051-3.113-.07-4.17-.07-.342 0-1.32.02-2.941.07-1.637.049-3.102.089-4.418.109q-1.332 3.606-4.281 11.149l-.135.32c-.832-.06-1.512-.1-2.047-.129a24 24 0 0 0-1.284-.052c-.558 0-1.157.02-1.816.052-.659.03-1.35.07-2.079.13m13.706-16.408c.162 0 .41.01.764.03q3.272.089 4.668.089c1.055 0 2.781-.04 5.156-.119h.361a98 98 0 0 0-2.418-6.222 101 101 0 0 0-3.045-6.521 218 218 0 0 0-3.006 6.642 141 141 0 0 0-2.48 6.101m-59.566-3.547c0-6.891 2.055-12.261 6.165-16.098 4.114-3.845 9.826-5.77 17.152-5.77 7.065 0 12.521 1.773 16.385 5.33 3.865 3.545 5.793 8.564 5.793 15.035 0 7.022-2.025 12.481-6.078 16.359q-3.07 2.941-7.42 4.396c6.185 3.188 13 5.43 19.996 7.412l-14.227 1.664c-5.895-2.124-11.309-4.728-16.393-7.655-6.727-.14-11.922-1.913-15.611-5.326-3.845-3.566-5.762-8.675-5.762-15.347m10.745-.53c0 5.418 1.065 9.646 3.201 12.7 2.137 3.056 5.08 4.578 8.846 4.578 3.688 0 6.604-1.543 8.756-4.618 2.154-3.085 3.234-7.302 3.234-12.66q0-8.188-3.205-12.814c-2.135-3.075-5.058-4.617-8.786-4.617-3.746 0-6.689 1.542-8.836 4.637-2.145 3.087-3.21 7.354-3.21 12.794M2.834 76.853c1.358.1 2.507.159 3.453.199.948.042 1.769.062 2.474.062q.984 0 2.33-.062c.894-.04 2.095-.109 3.622-.229a179 179 0 0 0-.633 9.225q-.202 4.78-.201 10.79c0 6.672.719 11.059 2.161 13.152 1.444 2.094 3.949 3.135 7.53 3.135 2.011 0 3.792-.37 5.351-1.101 1.545-.732 2.768-1.783 3.652-3.157.781-1.191 1.336-2.744 1.663-4.667.327-1.913.496-4.888.496-8.915 0-3.427-.062-6.671-.179-9.749a188 188 0 0 0-.556-8.714c1.01.12 1.789.189 2.346.229q.823.063 1.358.062.551 0 1.306-.062c.506-.04 1.211-.1 2.117-.199a240 240 0 0 0-.42 7.193 135 135 0 0 0-.137 5.84v8.885c0 4.076-.285 7.163-.864 9.277q-.868 3.172-2.866 5.368-2.446 2.647-6.16 3.957c-2.475.871-5.402 1.303-8.77 1.303-3.708 0-6.888-.481-9.553-1.452-2.665-.972-4.708-2.375-6.118-4.218-1.033-1.342-1.758-3.085-2.19-5.219s-.653-5.52-.653-10.159v-7.333c0-2.686-.043-5.09-.138-7.213a131 131 0 0 0-.421-6.228m92.005-9.495 11.292-.859 17.098 6.448-9.893.43z"/></g></svg>