<svg xmlns="http://www.w3.org/2000/svg" xml:space="preserve" id="Calque_1" x="0" y="0" viewBox="0 0 544.9 201.9"><style>.st0{fill:#10069f}</style><path d="M174.3 55.9V34.5h6.5v21.1c0 6.9 3.5 10.5 9.4 10.5 5.8 0 9.3-3.4 9.3-10.3V34.5h6.5v21c0 11.1-6.2 16.6-15.9 16.6-9.7.1-15.8-5.5-15.8-16.2M215 34.5h6l19.9 25.6V34.5h6.4v37.1h-5.5l-20.4-26.4v26.4H215zm42.2 0h6.5v37.1h-6.5zm13.2 0h7.2L288.8 63l11.1-28.5h7l-15.4 37.3h-5.8zm42.9 0h27.5v5.8h-21V50h18.6v5.8h-18.6v10H341v5.8h-27.8zm35.5 0h16.5c4.7 0 8.3 1.4 10.7 3.7 2 2 3.1 4.8 3.1 8v.1c0 6.1-3.7 9.7-8.8 11.2l10 14h-7.7l-9.1-12.9h-8.2v12.9h-6.5zm16.1 18.4c4.7 0 7.6-2.4 7.6-6.2v-.1c0-4-2.9-6.1-7.7-6.1h-9.5v12.4zm19.7 13.3 3.9-4.7c3.5 3.1 7.1 4.8 11.7 4.8 4 0 6.6-1.9 6.6-4.7v-.1c0-2.6-1.5-4.1-8.4-5.7-7.9-1.9-12.3-4.2-12.3-11.1v-.1c0-6.4 5.3-10.8 12.7-10.8 5.4 0 9.7 1.6 13.5 4.7l-3.5 4.9c-3.3-2.5-6.7-3.8-10.1-3.8-3.8 0-6 2-6 4.4v.1c0 2.9 1.7 4.1 8.8 5.8 7.8 1.9 11.9 4.7 11.9 10.9v.1c0 6.9-5.5 11.1-13.2 11.1-5.8.1-11.1-1.8-15.6-5.8m36.8-31.7h6.5v37.1h-6.5zm25.5 6.1h-11.8v-6h30.1v6h-11.8v31h-6.6zm25.2-6.1h27.5v5.8h-21V50h18.6v5.8h-18.6v10h21.2v5.8H472zm17.2-10.7 5.8 2.5-6.8 5.1h-5zm-316.9 96.4 3.9-4.7c3.5 3.1 7.1 4.8 11.7 4.8 4 0 6.6-1.9 6.6-4.7v-.1c0-2.6-1.5-4.1-8.4-5.7-7.9-1.9-12.3-4.2-12.3-11.1v-.1c0-6.4 5.3-10.8 12.7-10.8 5.4 0 9.7 1.6 13.5 4.7l-3.5 4.9c-3.3-2.5-6.7-3.8-10.1-3.8-3.8 0-6 2-6 4.4v.1c0 2.9 1.7 4.1 8.8 5.8 7.8 1.9 11.9 4.7 11.9 10.9v.1c0 6.9-5.5 11.1-13.2 11.1-5.8.1-11.2-1.8-15.6-5.8m48.7-31.9h6l16.3 37.3h-6.9l-3.8-9h-17.5l-3.8 9h-6.7zm9.3 22.6L224 96l-6.4 14.8h12.8zm11-22.4h7.2l11.2 28.5 11.1-28.5h7l-15.4 37.3h-5.8zm38.9 18.7v-.1c0-10.4 8-19.2 19.4-19.2S319 96.5 319 107v.1c0 10.4-8 19.2-19.4 19.2-11.4-.1-19.3-8.7-19.3-19.1m31.9 0v-.1c0-7.2-5.2-13.2-12.6-13.2s-12.5 5.9-12.5 13.1v.1c0 7.2 5.2 13.1 12.6 13.1s12.5-5.8 12.5-13m15.1-18.7h6.5v37.1h-6.5zm16.4 0h27.5v5.8h-21v9.6h18.6v5.8h-18.6v10h21.2v5.8h-27.8zm-168.8 54h6.9l11.3 17.5 11.3-17.5h6.9v37.1h-6.5V153l-11.7 17.5h-.2l-11.6-17.4v26.5h-6.4zm44.3 18.7v-.1c0-10.4 8.1-19.2 19.4-19.2 11.4 0 19.3 8.6 19.3 19.1v.1c0 10.4-8 19.2-19.4 19.2s-19.3-8.7-19.3-19.1m31.9 0v-.1c0-7.2-5.2-13.2-12.6-13.2S226 153.8 226 161v.1c0 7.2 5.2 13.1 12.6 13.1s12.5-5.8 12.5-13m14.8-18.7h6l19.9 25.6v-25.6h6.4v37.1h-5.5l-20.4-26.4v26.4h-6.4zm50.9 6.1H305v-6h30.1v6h-11.8v31h-6.6zm41.1-6.1h16.6c4.2 0 7.6 1.2 9.7 3.3 1.6 1.6 2.5 3.7 2.5 6.1v.1c0 4.4-2.5 6.8-5.3 8.3 4.3 1.5 7.4 4 7.4 9v.1c0 6.6-5.5 10.2-13.7 10.2h-17.2zm22.3 10.5c0-2.9-2.3-4.7-6.5-4.7h-9.4v9.9h8.9c4.2 0 7-1.6 7-5zm-5.5 10.7h-10.3v10.2h10.8c4.4 0 7.1-1.7 7.1-5.1v-.1c0-3.2-2.5-5-7.6-5m21.5-21.2h6.5v31.1h19.5v5.9h-26zm45.9-.2h6l16.3 37.3h-6.9l-3.8-9h-17.5l-3.8 9h-6.7zm9.3 22.6-6.4-14.8-6.4 14.8zm19.4-22.4h6l19.9 25.6v-25.6h6.4v37.1h-5.5l-20.4-26.4v26.4h-6.4zm40.2 18.7v-.1c0-10.5 7.9-19.2 19.1-19.2 6.8 0 11 2.4 14.5 5.8l-4.2 4.8c-3-2.8-6.1-4.6-10.4-4.6-7 0-12.2 5.8-12.2 13.1v.1c0 7.3 5.1 13.1 12.2 13.1 4.6 0 7.5-1.8 10.6-4.8l4.2 4.2c-3.9 4-8.1 6.6-15 6.6-10.8 0-18.8-8.4-18.8-19" class="st0"/><path d="M53.3 68.7v10.5c0 3 2.4 5.5 5.5 5.5h10.3v-16zm25.6 15.9h10.6c3 0 5.5-2.4 5.5-5.5V68.7H79v15.9zM69.1 43H53.3v15.8h15.8zM95 58.8V43H78.9v15.8z" style="fill:#ef3340"/><path d="M144.1 26H116c-2.3 0-4.2 1.9-4.2 4.2s1.9 4.2 4.2 4.2h23.9V133c0 3.8-.4 7.8-1.1 11.8l-.1.6L113 112c-.8-1-2.1-1.7-3.4-1.7s-2.6.6-3.4 1.7l-7.7 10.3-21-28.2c-.8-1.1-2.1-1.7-3.4-1.7s-2.6.6-3.4 1.7l-21 28.2L42 112c-.8-1.1-2.1-1.7-3.4-1.7s-2.6.6-3.4 1.7L9.7 145.4l-.1-.6c-.7-4-1.1-8-1.1-11.8V34.5h23.9c2.3 0 4.2-1.9 4.2-4.2s-1.9-4.2-4.2-4.2H4.2C1.9 26 0 27.9 0 30.3V133c0 14.2 4 28.1 11.7 40 1.7 2.7 3.6 5.3 5.6 7.6 7.6 9 17.4 16.3 28.3 20.8.6.3 1.3.5 2 .5 1.3 0 2.6-.6 3.4-1.7l23.2-31 .2.3 22.8 30.6c.5.7 1.3 1.3 2.2 1.5l.2.1c.4.1.8.2 1.2.2.6 0 1.1-.1 1.6-.3 11.1-4.6 21-11.8 28.6-20.9 2-2.4 3.9-4.9 5.6-7.6 7.6-11.9 11.7-25.8 11.7-40V30.3c0-2.4-1.9-4.3-4.2-4.3m-18.2 147.4c-6.3 8-14.4 14.6-23.6 18.9l-.2.1-.1-.2-24.4-32.7c-.8-1.1-2.1-1.7-3.4-1.7s-2.6.6-3.4 1.7l-24.5 32.9-.2-.1c-9.2-4.3-17.3-10.9-23.6-18.9l-.1-.2.1-.2 51.8-69.3 24.7 33 27.2 36.5z" class="st0"/><path d="M108.4 4.2c0-2.2-1.7-4-3.9-4.2s-4.2 1.3-4.5 3.5l-.8 4.3c-1.4 3.3-5.3 5.4-10.1 5.4-5 0-10.8-2.4-10.8-9 0-2.3-1.9-4.2-4.2-4.2s-4.2 1.9-4.2 4.2c0 6.6-5.8 9-10.8 9-4.8 0-8.6-2.1-10.1-5.4v-.1l-.7-4.2c-.4-2-2.1-3.5-4.2-3.5h-.4c-2.2.2-3.9 2-3.9 4.2V5c.1 1.1.8 4.3.9 4.9l3.6 21c.4 2 2.1 3.5 4.2 3.5h51.1c2.1 0 3.8-1.5 4.2-3.5l3.6-21c.1-.6.8-4 .9-5.2.1-.1.1-.3.1-.5M96.1 26H52.2l-1-5.7.5.2q3.45 1.2 7.5 1.2c6 0 11.2-2.1 14.8-5.9l.2-.2.2.2c3.6 3.8 8.8 5.9 14.8 5.9 2.6 0 5.2-.4 7.5-1.2l.5-.2z" class="st0"/></svg>